<?xml version="1.0" standalone="no"?>
<!DOCTYPE svg PUBLIC "-//W3C//DTD SVG 20010904//EN"
 "http://www.w3.org/TR/2001/REC-SVG-20010904/DTD/svg10.dtd">
<svg version="1.0" xmlns="http://www.w3.org/2000/svg"
 width="70.000000pt" height="70.000000pt" viewBox="0 0 200.000000 200.000000"
 preserveAspectRatio="xMidYMid meet">
<metadata>
Created by potrace 1.10, written by Peter Selinger 2001-2011
</metadata>
<g transform="translate(0.000000,200.000000) scale(0.100000,-0.100000)"
fill="#2a669a" stroke="none">
<path d="M504 1805 c-3 -8 -1 -37 6 -64 29 -123 -31 -226 -152 -263 -31 -9
-48 -8 -97 7 -56 17 -97 15 -89 -3 2 -5 65 -67 142 -139 l139 -129 106 42 c58
23 174 69 256 102 l150 59 3 54 c1 30 9 117 17 193 8 77 12 143 9 148 -13 21
-36 3 -63 -50 -48 -95 -132 -135 -230 -110 -51 13 -128 83 -151 137 -13 33
-37 41 -46 16z m101 -134 c32 -31 108 -61 153 -61 49 0 98 19 141 56 23 20 45
34 48 30 3 -3 1 -60 -4 -127 -7 -85 -14 -123 -24 -130 -8 -5 -61 -27 -119 -50
-58 -23 -156 -61 -219 -86 -135 -53 -124 -56 -237 58 l-79 79 41 0 c53 0 115
22 161 57 43 33 83 113 83 166 0 45 13 47 55 8z"/>
<path d="M1505 1520 l0 -171 29 3 c29 3 29 3 30 73 1 69 1 70 30 73 36 4 43
-3 75 -80 23 -54 30 -63 59 -69 17 -3 32 -3 32 2 0 4 -16 40 -35 79 l-36 70
28 24 c38 33 39 95 1 132 -24 24 -35 27 -120 31 l-93 4 0 -171z m173 104 c6
-2 12 -17 12 -33 0 -37 -23 -51 -84 -51 l-46 0 0 50 0 49 53 -5 c28 -3 58 -7
65 -10z"/>
<path d="M925 1314 c-49 -19 -103 -41 -120 -48 -16 -8 -79 -32 -140 -55 -60
-23 -125 -48 -143 -56 -18 -8 -39 -15 -47 -15 -24 0 -25 -16 -5 -59 23 -46 26
-47 58 -25 20 14 23 14 29 -3 3 -10 15 -40 25 -66 17 -46 17 -54 3 -136 -18
-104 -27 -72 115 -436 15 -38 37 -97 50 -130 28 -74 55 -105 92 -105 25 0 120
33 258 90 25 10 99 40 165 65 176 68 191 90 142 208 -14 34 -61 152 -104 261
l-78 199 -76 61 c-64 52 -79 70 -101 123 -16 39 -21 63 -14 63 30 1 37 16 21
46 -8 16 -15 35 -15 42 0 18 -16 15 -115 -24z m91 -25 c9 -16 -6 -27 -47 -32
-19 -2 -51 -11 -70 -20 -65 -28 -244 -97 -252 -96 -5 0 -23 -11 -42 -25 -20
-15 -47 -26 -65 -26 -56 0 -28 23 81 67 394 157 382 153 395 132z m-5 -114
c10 -27 15 -52 11 -56 -4 -4 -38 -18 -77 -32 -38 -14 -125 -47 -192 -74 l-122
-50 -18 51 c-23 67 -23 66 17 80 73 26 306 118 320 127 27 16 42 5 61 -46z
m107 -139 l67 -55 79 -203 c43 -112 91 -231 106 -265 22 -49 26 -65 17 -77 -7
-8 -66 -36 -132 -61 -66 -26 -182 -71 -259 -101 -76 -30 -147 -54 -158 -52
-19 3 -23 11 -91 188 -14 36 -51 129 -81 208 l-56 143 11 72 c6 40 13 77 14
82 1 6 67 35 145 65 79 30 168 67 199 82 31 14 60 27 64 27 4 1 38 -24 75 -53z"/>
<path d="M932 785 c-111 -45 -205 -85 -208 -88 -4 -3 0 -21 9 -39 8 -18 38
-93 67 -165 28 -73 57 -133 64 -133 7 0 39 11 72 24 32 13 120 47 194 75 74
29 139 57 144 61 5 5 -18 76 -53 164 -33 86 -61 160 -61 165 0 22 -38 12 -228
-64z m233 -72 c21 -54 45 -113 53 -131 8 -18 12 -35 10 -38 -3 -3 -70 -30
-149 -60 -79 -30 -157 -62 -173 -70 -36 -18 -36 -18 -36 4 -1 9 -23 71 -50
137 -27 65 -47 121 -45 123 2 2 32 15 67 27 35 13 108 42 163 64 55 21 105 40
111 40 6 1 28 -43 49 -96z"/>
<path d="M1623 1172 l-93 -3 0 -169 0 -170 31 0 31 0 -4 76 -3 76 65 -4 c65
-3 65 -3 68 25 l3 28 -68 -2 -68 -3 -3 47 -3 47 75 0 c74 0 76 1 76 24 0 14
-3 26 -7 28 -5 2 -50 2 -100 0z"/>
<path d="M1552 635 c-60 -50 -44 -121 35 -155 83 -36 98 -45 101 -66 4 -29
-21 -46 -64 -42 -35 3 -46 12 -57 49 -8 26 -57 13 -57 -16 0 -60 81 -104 155
-84 51 14 74 43 75 95 0 50 -23 74 -102 105 -61 23 -74 39 -58 70 8 13 21 19
46 19 31 0 37 -4 47 -30 9 -23 17 -30 39 -30 30 0 33 6 19 43 -18 45 -50 67
-102 67 -36 0 -55 -6 -77 -25z"/>
</g>
</svg>
